<svg width="40" height="40" viewBox="0 0 40 40" fill="none" xmlns="http://www.w3.org/2000/svg">
<circle cx="20" cy="20" r="19" stroke="white" stroke-opacity="0.51" stroke-width="2"/>
<path d="M15.3617 11.5833C15.3615 12.0696 15.1681 12.5358 14.8241 12.8794C14.4801 13.2231 14.0137 13.416 13.5275 13.4158C13.0413 13.4155 12.575 13.2221 12.2314 12.8781C11.8877 12.5341 11.6948 12.0677 11.6951 11.5815C11.6953 11.0953 11.8887 10.6291 12.2327 10.2854C12.5767 9.94176 13.0431 9.74884 13.5293 9.74908C14.0155 9.74933 14.4818 9.94272 14.8254 10.2867C15.1691 10.6307 15.362 11.0971 15.3617 11.5833ZM15.4167 14.7733H11.7501V26.25H15.4167V14.7733ZM21.2101 14.7733H17.5617V26.25H21.1734V20.2275C21.1734 16.8725 25.5459 16.5608 25.5459 20.2275V26.25H29.1667V18.9808C29.1667 13.325 22.6951 13.5358 21.1734 16.3133L21.2101 14.7733Z" fill="white" fill-opacity="0.51"/>
</svg>
