<svg width="112" height="145" viewBox="0 0 112 145" fill="none" xmlns="http://www.w3.org/2000/svg">
<circle cx="56" cy="56" r="56" fill="white"/>
<circle cx="56.5" cy="56.5" r="50.5" fill="white" stroke="#1597A6" stroke-width="2"/>
<path d="M75.6054 36.666H37.3944C37.298 36.6658 37.2024 36.6847 37.1132 36.7215C37.024 36.7584 36.943 36.8124 36.8748 36.8807C36.8066 36.9489 36.7525 37.0299 36.7157 37.1191C36.6788 37.2082 36.66 37.3038 36.6602 37.4003V75.6055C36.66 75.702 36.6788 75.7976 36.7157 75.8867C36.7525 75.9759 36.8066 76.0569 36.8748 76.1252C36.943 76.1934 37.024 76.2475 37.1132 76.2843C37.2024 76.3211 37.298 76.34 37.3944 76.3398H75.6054C75.7019 76.34 75.7974 76.3211 75.8866 76.2843C75.9758 76.2475 76.0568 76.1934 76.125 76.1252C76.1932 76.0569 76.2473 75.9759 76.2841 75.8867C76.321 75.7976 76.3398 75.702 76.3396 75.6055V37.3946C76.3385 37.2007 76.2606 37.0152 76.123 36.8786C75.9854 36.7421 75.7992 36.6656 75.6054 36.666ZM74.8711 74.8655H38.1344V38.1346H74.8654L74.8711 74.8655Z" fill="#1597A6"/>
<path d="M89.1503 53.0067C89.345 53.0067 89.5318 52.9294 89.6695 52.7917C89.8072 52.654 89.8846 52.4672 89.8846 52.2725C89.8846 52.0777 89.8072 51.8909 89.6695 51.7532C89.5318 51.6155 89.345 51.5382 89.1503 51.5382H82.191V44.5519H89.1503C89.345 44.5519 89.5318 44.4745 89.6695 44.3368C89.8072 44.1991 89.8846 44.0123 89.8846 43.8176C89.8846 43.6228 89.8072 43.4361 89.6695 43.2984C89.5318 43.1607 89.345 43.0833 89.1503 43.0833H82.191V37.229C82.188 35.5283 81.5111 33.8981 80.3085 32.6956C79.1059 31.493 77.4757 30.816 75.775 30.813H69.9165V23.8495C69.9165 23.6548 69.8391 23.468 69.7014 23.3303C69.5637 23.1926 69.377 23.1152 69.1822 23.1152C68.9875 23.1152 68.8007 23.1926 68.663 23.3303C68.5253 23.468 68.4479 23.6548 68.4479 23.8495V30.8087H61.4616V23.8495C61.4616 23.6548 61.3843 23.468 61.2466 23.3303C61.1088 23.1926 60.9221 23.1152 60.7273 23.1152C60.5326 23.1152 60.3458 23.1926 60.2081 23.3303C60.0704 23.468 59.9931 23.6548 59.9931 23.8495V30.8087H53.0067V23.8495C53.0067 23.6548 52.9294 23.468 52.7917 23.3303C52.654 23.1926 52.4672 23.1152 52.2725 23.1152C52.0777 23.1152 51.8909 23.1926 51.7532 23.3303C51.6155 23.468 51.5382 23.6548 51.5382 23.8495V30.8087H44.5519V23.8495C44.5519 23.6548 44.4745 23.468 44.3368 23.3303C44.1991 23.1926 44.0123 23.1152 43.8176 23.1152C43.6228 23.1152 43.4361 23.1926 43.2984 23.3303C43.1607 23.468 43.0833 23.6548 43.0833 23.8495V30.8087H37.229C35.5283 30.8118 33.8981 31.4887 32.6956 32.6913C31.493 33.8939 30.816 35.5241 30.813 37.2248V43.0833H23.8495C23.6548 43.0833 23.468 43.1607 23.3303 43.2984C23.1926 43.4361 23.1152 43.6228 23.1152 43.8176C23.1152 44.0123 23.1926 44.1991 23.3303 44.3368C23.468 44.4745 23.6548 44.5519 23.8495 44.5519H30.8087V51.5382H23.8495C23.6548 51.5382 23.468 51.6155 23.3303 51.7532C23.1926 51.8909 23.1152 52.0777 23.1152 52.2725C23.1152 52.4672 23.1926 52.654 23.3303 52.7917C23.468 52.9294 23.6548 53.0067 23.8495 53.0067H30.8087V59.9931H23.8495C23.6548 59.9931 23.468 60.0704 23.3303 60.2081C23.1926 60.3458 23.1152 60.5326 23.1152 60.7273C23.1152 60.9221 23.1926 61.1088 23.3303 61.2466C23.468 61.3843 23.6548 61.4616 23.8495 61.4616H30.8087V68.4479H23.8495C23.6548 68.4479 23.468 68.5253 23.3303 68.663C23.1926 68.8007 23.1152 68.9875 23.1152 69.1822C23.1152 69.377 23.1926 69.5637 23.3303 69.7014C23.468 69.8391 23.6548 69.9165 23.8495 69.9165H30.8087V75.7708C30.8118 77.4715 31.4887 79.1017 32.6913 80.3042C33.8939 81.5068 35.5241 82.1838 37.2248 82.1868H43.0833V89.1503C43.0833 89.2467 43.1023 89.3422 43.1392 89.4313C43.1761 89.5204 43.2302 89.6013 43.2984 89.6695C43.3665 89.7377 43.4475 89.7918 43.5366 89.8287C43.6257 89.8656 43.7211 89.8846 43.8176 89.8846C43.914 89.8846 44.0095 89.8656 44.0986 89.8287C44.1877 89.7918 44.2686 89.7377 44.3368 89.6695C44.405 89.6013 44.4591 89.5204 44.496 89.4313C44.5329 89.3422 44.5519 89.2467 44.5519 89.1503V82.191H51.5382V89.1503C51.5382 89.345 51.6155 89.5318 51.7532 89.6695C51.8909 89.8072 52.0777 89.8846 52.2725 89.8846C52.4672 89.8846 52.654 89.8072 52.7917 89.6695C52.9294 89.5318 53.0067 89.345 53.0067 89.1503V82.191H59.9931V89.1503C59.9931 89.345 60.0704 89.5318 60.2081 89.6695C60.3458 89.8072 60.5326 89.8846 60.7273 89.8846C60.9221 89.8846 61.1088 89.8072 61.2466 89.6695C61.3843 89.5318 61.4616 89.345 61.4616 89.1503V82.191H68.4479V89.1503C68.4479 89.345 68.5253 89.5318 68.663 89.6695C68.8007 89.8072 68.9875 89.8846 69.1822 89.8846C69.377 89.8846 69.5637 89.8072 69.7014 89.6695C69.8391 89.5318 69.9165 89.345 69.9165 89.1503V82.191H75.7708C77.4715 82.188 79.1017 81.5111 80.3042 80.3085C81.5068 79.1059 82.1838 77.4757 82.1868 75.775V69.9165H89.1503C89.345 69.9165 89.5318 69.8391 89.6695 69.7014C89.8072 69.5637 89.8846 69.377 89.8846 69.1822C89.8846 68.9875 89.8072 68.8007 89.6695 68.663C89.5318 68.5253 89.345 68.4479 89.1503 68.4479H82.191V61.4616H89.1503C89.345 61.4616 89.5318 61.3843 89.6695 61.2466C89.8072 61.1088 89.8846 60.9221 89.8846 60.7273C89.8846 60.5326 89.8072 60.3458 89.6695 60.2081C89.5318 60.0704 89.345 59.9931 89.1503 59.9931H82.191V53.0067H89.1503ZM80.7225 75.7708C80.721 77.0836 80.1988 78.3422 79.2705 79.2705C78.3422 80.1988 77.0836 80.721 75.7708 80.7225H37.229C35.9162 80.721 34.6576 80.1988 33.7293 79.2705C32.801 78.3422 32.2788 77.0836 32.2773 75.7708V37.229C32.2788 35.9162 32.801 34.6576 33.7293 33.7293C34.6576 32.801 35.9162 32.2788 37.229 32.2773H75.7708C77.0836 32.2788 78.3422 32.801 79.2705 33.7293C80.1988 34.6576 80.721 35.9162 80.7225 37.229V75.7708Z" fill="#1597A6"/>
<circle cx="57" cy="57" r="10.75" stroke="#1597A6" stroke-width="1.5"/>
<path d="M56 116V145" stroke="white" stroke-width="2" stroke-dasharray="7 7"/>
</svg>
