<svg width="384" height="141" viewBox="0 0 384 141" fill="none" xmlns="http://www.w3.org/2000/svg">
<path d="M1 71.9561L164.199 129.063C208.346 144.451 296.47 155.445 295.795 76.3161C295.795 48.2072 282.527 14.5073 275.893 1.17098M1 63.4072L164.199 120.514C208.346 135.902 305.203 145.22 305.203 75.5467C305.203 47.4378 295.674 14.3363 289.04 1M3.29178 52.5501L166.249 108.46C210.396 123.848 309.063 145.819 314.129 65.288C315.896 37.207 308.701 14.5073 302.067 1.17098M5.10107 40.9235L150.327 94.3543C194.474 109.742 319.3 130.431 323.296 66.9123C325.063 38.8313 320.763 14.5073 314.129 1.17098M6.66913 30.5793L151.895 84.0101C196.042 99.3982 326.553 125.729 332.705 56.739C335.206 28.6861 330.775 14.1654 326.553 1.68391M10.1671 20.6625L157.082 75.5467C201.229 90.9348 330.476 108.118 340.183 57.081C345.37 29.8099 341.63 14.5073 338.494 1.68391M15.1125 11.8571L162.027 66.7413C206.174 82.1294 333.911 103.844 349.35 47.2497C354.782 27.3381 352.848 14.5073 350.315 1.51294M26.4508 5.18898L171.074 58.7908C215.223 72.6027 340.923 92.9347 356.364 42.1376C361.796 24.2654 361.895 12.2846 360.568 1.25647M38.8746 2.36783L183.143 53.0834C227.294 65.5252 350.072 82.0652 365.513 36.3071C370.946 20.2079 372.646 10.9168 372.646 1.25647M58.6563 1L196.17 49.0658C240.321 60.5431 344.36 71.7859 372.871 33.144C379.746 23.8256 384.089 11.5319 382.762 2.36783" stroke="url(#paint0_linear_35_524)" stroke-width="0.590546"/>
<defs>
<linearGradient id="paint0_linear_35_524" x1="143.331" y1="5.95838" x2="238.588" y2="122.948" gradientUnits="userSpaceOnUse">
<stop stop-color="#6B9DF0"/>
<stop offset="0.373261" stop-color="#6F92CC"/>
<stop offset="1" stop-color="#303B5B"/>
</linearGradient>
</defs>
</svg>
