<svg width="73" height="73" viewBox="0 0 73 73" fill="none" xmlns="http://www.w3.org/2000/svg">
<path d="M55.6054 16.666H17.3944C17.298 16.6658 17.2024 16.6847 17.1132 16.7215C17.024 16.7584 16.943 16.8124 16.8748 16.8807C16.8066 16.9489 16.7525 17.0299 16.7157 17.1191C16.6788 17.2082 16.66 17.3038 16.6602 17.4003V55.6055C16.66 55.702 16.6788 55.7976 16.7157 55.8867C16.7525 55.9759 16.8066 56.0569 16.8748 56.1252C16.943 56.1934 17.024 56.2475 17.1132 56.2843C17.2024 56.3211 17.298 56.34 17.3944 56.3398H55.6054C55.7019 56.34 55.7974 56.3211 55.8866 56.2843C55.9758 56.2475 56.0568 56.1934 56.125 56.1252C56.1932 56.0569 56.2473 55.9759 56.2841 55.8867C56.321 55.7976 56.3398 55.702 56.3396 55.6055V17.3946C56.3385 17.2007 56.2606 17.0152 56.123 16.8786C55.9854 16.7421 55.7992 16.6656 55.6054 16.666ZM54.8711 54.8655H18.1344V18.1346H54.8654L54.8711 54.8655Z" fill="#1597A6"/>
<path d="M69.1503 33.0067C69.345 33.0067 69.5318 32.9294 69.6695 32.7917C69.8072 32.654 69.8846 32.4672 69.8846 32.2725C69.8846 32.0777 69.8072 31.8909 69.6695 31.7532C69.5318 31.6155 69.345 31.5382 69.1503 31.5382H62.191V24.5519H69.1503C69.345 24.5519 69.5318 24.4745 69.6695 24.3368C69.8072 24.1991 69.8846 24.0123 69.8846 23.8176C69.8846 23.6228 69.8072 23.4361 69.6695 23.2984C69.5318 23.1607 69.345 23.0833 69.1503 23.0833H62.191V17.229C62.188 15.5283 61.5111 13.8981 60.3085 12.6956C59.1059 11.493 57.4757 10.816 55.775 10.813H49.9165V3.84951C49.9165 3.65477 49.8391 3.468 49.7014 3.3303C49.5637 3.1926 49.377 3.11523 49.1822 3.11523C48.9875 3.11523 48.8007 3.1926 48.663 3.3303C48.5253 3.468 48.4479 3.65477 48.4479 3.84951V10.8087H41.4616V3.84951C41.4616 3.65477 41.3843 3.468 41.2466 3.3303C41.1088 3.1926 40.9221 3.11523 40.7273 3.11523C40.5326 3.11523 40.3458 3.1926 40.2081 3.3303C40.0704 3.468 39.9931 3.65477 39.9931 3.84951V10.8087H33.0067V3.84951C33.0067 3.65477 32.9294 3.468 32.7917 3.3303C32.654 3.1926 32.4672 3.11523 32.2725 3.11523C32.0777 3.11523 31.8909 3.1926 31.7532 3.3303C31.6155 3.468 31.5382 3.65477 31.5382 3.84951V10.8087H24.5519V3.84951C24.5519 3.65477 24.4745 3.468 24.3368 3.3303C24.1991 3.1926 24.0123 3.11523 23.8176 3.11523C23.6228 3.11523 23.4361 3.1926 23.2984 3.3303C23.1607 3.468 23.0833 3.65477 23.0833 3.84951V10.8087H17.229C15.5283 10.8118 13.8981 11.4887 12.6956 12.6913C11.493 13.8939 10.816 15.5241 10.813 17.2248V23.0833H3.84951C3.65477 23.0833 3.468 23.1607 3.3303 23.2984C3.1926 23.4361 3.11523 23.6228 3.11523 23.8176C3.11523 24.0123 3.1926 24.1991 3.3303 24.3368C3.468 24.4745 3.65477 24.5519 3.84951 24.5519H10.8087V31.5382H3.84951C3.65477 31.5382 3.468 31.6155 3.3303 31.7532C3.1926 31.8909 3.11523 32.0777 3.11523 32.2725C3.11523 32.4672 3.1926 32.654 3.3303 32.7917C3.468 32.9294 3.65477 33.0067 3.84951 33.0067H10.8087V39.9931H3.84951C3.65477 39.9931 3.468 40.0704 3.3303 40.2081C3.1926 40.3458 3.11523 40.5326 3.11523 40.7273C3.11523 40.9221 3.1926 41.1088 3.3303 41.2466C3.468 41.3843 3.65477 41.4616 3.84951 41.4616H10.8087V48.4479H3.84951C3.65477 48.4479 3.468 48.5253 3.3303 48.663C3.1926 48.8007 3.11523 48.9875 3.11523 49.1822C3.11523 49.377 3.1926 49.5637 3.3303 49.7014C3.468 49.8391 3.65477 49.9165 3.84951 49.9165H10.8087V55.7708C10.8118 57.4715 11.4887 59.1017 12.6913 60.3042C13.8939 61.5068 15.5241 62.1838 17.2248 62.1868H23.0833V69.1503C23.0833 69.2467 23.1023 69.3422 23.1392 69.4313C23.1761 69.5204 23.2302 69.6013 23.2984 69.6695C23.3665 69.7377 23.4475 69.7918 23.5366 69.8287C23.6257 69.8656 23.7211 69.8846 23.8176 69.8846C23.914 69.8846 24.0095 69.8656 24.0986 69.8287C24.1877 69.7918 24.2686 69.7377 24.3368 69.6695C24.405 69.6013 24.4591 69.5204 24.496 69.4313C24.5329 69.3422 24.5519 69.2467 24.5519 69.1503V62.191H31.5382V69.1503C31.5382 69.345 31.6155 69.5318 31.7532 69.6695C31.8909 69.8072 32.0777 69.8846 32.2725 69.8846C32.4672 69.8846 32.654 69.8072 32.7917 69.6695C32.9294 69.5318 33.0067 69.345 33.0067 69.1503V62.191H39.9931V69.1503C39.9931 69.345 40.0704 69.5318 40.2081 69.6695C40.3458 69.8072 40.5326 69.8846 40.7273 69.8846C40.9221 69.8846 41.1088 69.8072 41.2466 69.6695C41.3843 69.5318 41.4616 69.345 41.4616 69.1503V62.191H48.4479V69.1503C48.4479 69.345 48.5253 69.5318 48.663 69.6695C48.8007 69.8072 48.9875 69.8846 49.1822 69.8846C49.377 69.8846 49.5637 69.8072 49.7014 69.6695C49.8391 69.5318 49.9165 69.345 49.9165 69.1503V62.191H55.7708C57.4715 62.188 59.1017 61.5111 60.3042 60.3085C61.5068 59.1059 62.1838 57.4757 62.1868 55.775V49.9165H69.1503C69.345 49.9165 69.5318 49.8391 69.6695 49.7014C69.8072 49.5637 69.8846 49.377 69.8846 49.1822C69.8846 48.9875 69.8072 48.8007 69.6695 48.663C69.5318 48.5253 69.345 48.4479 69.1503 48.4479H62.191V41.4616H69.1503C69.345 41.4616 69.5318 41.3843 69.6695 41.2466C69.8072 41.1088 69.8846 40.9221 69.8846 40.7273C69.8846 40.5326 69.8072 40.3458 69.6695 40.2081C69.5318 40.0704 69.345 39.9931 69.1503 39.9931H62.191V33.0067H69.1503ZM60.7225 55.7708C60.721 57.0836 60.1988 58.3422 59.2705 59.2705C58.3422 60.1988 57.0836 60.721 55.7708 60.7225H17.229C15.9162 60.721 14.6576 60.1988 13.7293 59.2705C12.801 58.3422 12.2788 57.0836 12.2773 55.7708V17.229C12.2788 15.9162 12.801 14.6576 13.7293 13.7293C14.6576 12.801 15.9162 12.2788 17.229 12.2773H55.7708C57.0836 12.2788 58.3422 12.801 59.2705 13.7293C60.1988 14.6576 60.721 15.9162 60.7225 17.229V55.7708Z" fill="#1597A6"/>
<circle cx="37" cy="37" r="10.75" stroke="#1597A6" stroke-width="1.5"/>
</svg>
