<svg width="107" height="214" viewBox="0 0 107 214" fill="none" xmlns="http://www.w3.org/2000/svg">
<mask id="path-1-inside-1_0_14" fill="white">
<path d="M0 3.05176e-05C14.0514 3.05176e-05 27.9653 2.76767 40.9471 8.14493C53.929 13.5222 65.7246 21.4037 75.6604 31.3396C85.5963 41.2755 93.4779 53.0711 98.8551 66.0529C104.232 79.0347 107 92.9486 107 107C107 121.051 104.232 134.965 98.8551 147.947C93.4779 160.929 85.5963 172.725 75.6604 182.66C65.7245 192.596 53.929 200.478 40.9471 205.855C27.9653 211.232 14.0514 214 -7.62939e-06 214V183.643C10.0649 183.643 20.0313 181.661 29.3301 177.809C38.6289 173.957 47.078 168.312 54.195 161.195C61.3119 154.078 66.9574 145.629 70.8091 136.33C74.6608 127.031 76.6432 117.065 76.6432 107C76.6432 96.9351 74.6608 86.9687 70.8091 77.6699C66.9574 68.3711 61.312 59.9221 54.195 52.8051C47.078 45.6881 38.6289 40.0426 29.3301 36.1909C20.0313 32.3392 10.0649 30.3568 0 30.3568V3.05176e-05Z"/>
</mask>
<path d="M0 3.05176e-05C14.0514 3.05176e-05 27.9653 2.76767 40.9471 8.14493C53.929 13.5222 65.7246 21.4037 75.6604 31.3396C85.5963 41.2755 93.4779 53.0711 98.8551 66.0529C104.232 79.0347 107 92.9486 107 107C107 121.051 104.232 134.965 98.8551 147.947C93.4779 160.929 85.5963 172.725 75.6604 182.66C65.7245 192.596 53.929 200.478 40.9471 205.855C27.9653 211.232 14.0514 214 -7.62939e-06 214V183.643C10.0649 183.643 20.0313 181.661 29.3301 177.809C38.6289 173.957 47.078 168.312 54.195 161.195C61.3119 154.078 66.9574 145.629 70.8091 136.33C74.6608 127.031 76.6432 117.065 76.6432 107C76.6432 96.9351 74.6608 86.9687 70.8091 77.6699C66.9574 68.3711 61.312 59.9221 54.195 52.8051C47.078 45.6881 38.6289 40.0426 29.3301 36.1909C20.0313 32.3392 10.0649 30.3568 0 30.3568V3.05176e-05Z" stroke="white" stroke-width="2" mask="url(#path-1-inside-1_0_14)"/>
</svg>
