<svg width="107" height="214" viewBox="0 0 107 214" fill="none" xmlns="http://www.w3.org/2000/svg">
<mask id="path-1-inside-1_0_13" fill="white">
<path d="M107 3.05176e-05C92.9486 3.05176e-05 79.0347 2.76767 66.0529 8.14493C53.071 13.5222 41.2754 21.4037 31.3396 31.3396C21.4037 41.2755 13.5221 53.0711 8.14488 66.0529C2.76764 79.0347 0 92.9486 0 107C0 121.051 2.76764 134.965 8.1449 147.947C13.5221 160.929 21.4037 172.725 31.3396 182.66C41.2755 192.596 53.071 200.478 66.0529 205.855C79.0347 211.232 92.9486 214 107 214V183.643C96.9351 183.643 86.9687 181.661 77.6699 177.809C68.3711 173.957 59.922 168.312 52.805 161.195C45.6881 154.078 40.0426 145.629 36.1909 136.33C32.3392 127.031 30.3568 117.065 30.3568 107C30.3568 96.9351 32.3392 86.9687 36.1909 77.6699C40.0426 68.3711 45.688 59.9221 52.805 52.8051C59.922 45.6881 68.3711 40.0426 77.6699 36.1909C86.9687 32.3392 96.9351 30.3568 107 30.3568V3.05176e-05Z"/>
</mask>
<path d="M107 3.05176e-05C92.9486 3.05176e-05 79.0347 2.76767 66.0529 8.14493C53.071 13.5222 41.2754 21.4037 31.3396 31.3396C21.4037 41.2755 13.5221 53.0711 8.14488 66.0529C2.76764 79.0347 0 92.9486 0 107C0 121.051 2.76764 134.965 8.1449 147.947C13.5221 160.929 21.4037 172.725 31.3396 182.66C41.2755 192.596 53.071 200.478 66.0529 205.855C79.0347 211.232 92.9486 214 107 214V183.643C96.9351 183.643 86.9687 181.661 77.6699 177.809C68.3711 173.957 59.922 168.312 52.805 161.195C45.6881 154.078 40.0426 145.629 36.1909 136.33C32.3392 127.031 30.3568 117.065 30.3568 107C30.3568 96.9351 32.3392 86.9687 36.1909 77.6699C40.0426 68.3711 45.688 59.9221 52.805 52.8051C59.922 45.6881 68.3711 40.0426 77.6699 36.1909C86.9687 32.3392 96.9351 30.3568 107 30.3568V3.05176e-05Z" stroke="white" stroke-width="2" mask="url(#path-1-inside-1_0_13)"/>
</svg>
